HIERARCHY
ROOT Hips
{
  OFFSET 3.13124 94.3669 -3.18751
  CHANNELS  6 Xposition Yposition Zposition Zrotation Xrotation Yrotation
  JOINT LeftUpLeg
  {
    OFFSET 8.64259 1.95398 -2.38835
    CHANNELS 3 Zrotation Xrotation Yrotation
    JOINT LeftLeg
    {
      OFFSET 43.7702 0 0
      CHANNELS 3 Zrotation Xrotation Yrotation
      JOINT LeftFoot
      {
        OFFSET 40.6238 0 0
        CHANNELS 3 Zrotation Xrotation Yrotation
        JOINT LeftToeBase
        {
          OFFSET 12.7242 0 0
          CHANNELS 3 Zrotation Xrotation Yrotation
          End Site
          {
            OFFSET 0 0 0
          }
        }
      }
    }
  }
  JOINT RightUpLeg
  {
    OFFSET -8.2249 1.95398 -2.59336
    CHANNELS 3 Zrotation Xrotation Yrotation
    JOINT RightLeg
    {
      OFFSET 43.5653 0 0
      CHANNELS 3 Zrotation Xrotation Yrotation
      JOINT RightFoot
      {
        OFFSET 40.6238 0 0
        CHANNELS 3 Zrotation Xrotation Yrotation
        JOINT RightToeBase
        {
          OFFSET 12.7242 0 0
          CHANNELS 3 Zrotation Xrotation Yrotation
          End Site
          {
            OFFSET 0 0 0
          }
        }
      }
    }
  }
  JOINT Spine
  {
    OFFSET 0.165834 0.87714 6.61349
    CHANNELS 3 Zrotation Xrotation Yrotation
    JOINT Spine1
    {
      OFFSET 7.38962 1.71661e-005 0
      CHANNELS 3 Zrotation Xrotation Yrotation
      JOINT Spine2
      {
        OFFSET 11.9445 1.14441e-005 0
        CHANNELS 3 Zrotation Xrotation Yrotation
        JOINT Spine3
        {
          OFFSET 14.7254 4.19617e-005 0
          CHANNELS 3 Zrotation Xrotation Yrotation
          JOINT Spine4
          {
            OFFSET 10.9679 0 0
            CHANNELS 3 Zrotation Xrotation Yrotation
            JOINT RightShoulder
            {
              OFFSET 2.46616 -1.6653 3.69651
              CHANNELS 3 Zrotation Xrotation Yrotation
              JOINT RightArm
              {
                OFFSET 13.0012 0 0
                CHANNELS 3 Zrotation Xrotation Yrotation
                JOINT RightForeArm
                {
                  OFFSET 28.7848 1.52588e-005 0
                  CHANNELS 3 Zrotation Xrotation Yrotation
                  JOINT RightHand
                  {
                    OFFSET 26.5688 1.52588e-005 0
                    CHANNELS 3 Zrotation Xrotation Yrotation
                    End Site
                    {
                      OFFSET 0 0 0
                    }
                  }
                }
              }
            }
            JOINT LeftShoulder
            {
              OFFSET 2.38034 -1.29275 -3.75231
              CHANNELS 3 Zrotation Xrotation Yrotation
              JOINT LeftArm
              {
                OFFSET 16.3182 6.10352e-005 0
                CHANNELS 3 Zrotation Xrotation Yrotation
                JOINT LeftForeArm
                {
                  OFFSET 27.0901 0 0
                  CHANNELS 3 Zrotation Xrotation Yrotation
                  JOINT LeftHand
                  {
                    OFFSET 24.5451 1.52588e-005 0
                    CHANNELS 3 Zrotation Xrotation Yrotation
                    End Site
                    {
                      OFFSET 0 0 0
                    }
                  }
                }
              }
            }
            JOINT Neck
            {
              OFFSET 5.0226 -0.0266342 0
              CHANNELS 3 Zrotation Xrotation Yrotation
              JOINT Head
              {
                OFFSET 6.69363 2.86102e-005 0
                CHANNELS 3 Zrotation Xrotation Yrotation
                End Site
                {
                  OFFSET 0 0 0
                }
              }
            }
          }
        }
      }
    }
  }
}
MOTION
Frames:	7
Frame Time:	0.0333333
42.3297 92.6974 1.09507 -58.0134 -77.9448 -60.2509 -171.816 6.68011 88.9225 -12.3537 -5.14023 -1.22408 65.3736 -0.834215 -0.582734 28.7808 4.23721e-006 1.53998e-005 174.084 3.74898 77.9382 -4.40098 18.7063 1.15688 60.6804 1.13835 0.817426 28.7808 1.4092e-005 2.81049e-005 0.253356 6.00959 -89.5121 14.8694 0.588846 -0.290464 3.19851 0.57547 -0.316211 -19.3377 0.648922 -0.100086 0.674962 0.648922 -0.100089 71.6015 -63.3049 -121.911 22.6569 17.7138 8.51614 -7.06203 -3.65875 -49.6515 11.9997 2.28335 15.5828 -102.986 -61.403 63.9547 -24.6251 -12.3045 10.4651 0.144588 -2.20654 -54.7825 -7.14601 -0.919686 15.3421 24.0468 7.32699 2.31021 35.3973 10.7102 13.4886 
42.0485 92.723 1.13893 -59.4233 -77.7519 -61.5929 -171.787 6.37742 89.1308 -12.187 -5.52456 -1.17694 65.3153 -0.932873 -0.635738 28.7808 4.23721e-006 1.53998e-005 174.151 3.56278 78.1281 -4.38775 18.3938 1.13503 60.7577 1.10043 0.791583 28.7808 1.4092e-005 2.81049e-005 0.227685 6.01201 -89.5447 14.869 0.524772 -0.295483 3.19811 0.511264 -0.31841 -19.3379 0.58934 -0.124173 0.674773 0.589322 -0.124184 71.9712 -63.3185 -121.438 21.8447 18.3267 9.89755 -6.44696 -3.01872 -50.3203 13.7956 2.79318 16.9433 -103.103 -61.4378 63.8167 -25.5168 -11.6839 11.3369 0.719337 -1.76591 -54.8536 -7.14036 -0.878853 14.3941 23.9773 7.34206 2.18683 35.2977 10.8216 13.6746 
41.7391 92.7544 1.16729 -60.8662 -77.4999 -62.9799 -171.784 6.0413 89.3273 -11.9242 -5.94466 -1.09121 65.2131 -1.0487 -0.699323 28.7808 4.23721e-006 1.53998e-005 174.224 3.40965 78.3295 -4.37274 18.0434 1.11069 60.8483 1.03858 0.750859 28.7808 1.4092e-005 2.81049e-005 0.213667 6.01419 -89.5753 14.8585 0.486327 -0.294033 3.18761 0.472917 -0.315221 -19.3482 0.552314 -0.134582 0.664453 0.552309 -0.1346 72.3762 -63.3569 -120.91 21.5798 18.4674 10.9606 -7.09767 -3.68233 -49.732 13.385 2.59152 15.9962 -103.217 -61.4211 63.6637 -26.058 -11.3044 12.4727 1.95421 -0.828077 -55.7947 -8.94834 -1.23959 15.4377 23.8639 7.24081 2.24378 35.4196 10.7254 13.6678 
41.409 92.7937 1.17549 -62.3112 -77.2095 -64.3604 -171.793 5.69554 89.5358 -11.6128 -6.42048 -0.98899 65.0588 -1.21071 -0.790331 28.7808 4.23721e-006 1.53998e-005 174.303 3.27482 78.5573 -4.35661 17.6671 1.08467 60.8898 0.947241 0.694272 28.7808 1.4092e-005 2.81049e-005 0.205996 6.01703 -89.6181 14.8445 0.456365 -0.309157 3.17356 0.442298 -0.328942 -19.3622 0.528173 -0.157689 0.650498 0.528157 -0.157709 72.8706 -63.3147 -120.301 21.2694 18.6567 12.0213 -7.65868 -4.22594 -49.5845 13.417 2.62245 16.1913 -103.263 -61.4091 63.6004 -26.7616 -10.8072 13.3995 3.40431 0.212817 -56.4537 -10.0305 -1.48455 16.2333 23.7052 7.17678 2.44507 35.5691 10.6199 13.6624 
41.0377 92.8367 1.1316 -63.6491 -76.8438 -65.572 -171.758 5.41772 89.8333 -11.2939 -6.89123 -0.896685 64.9365 -1.35603 -0.870754 28.7808 4.23721e-006 1.53998e-005 174.455 3.19977 78.8917 -4.34108 17.3037 1.05975 60.9122 0.817119 0.615193 28.7808 1.4092e-005 2.81049e-005 0.199869 6.02017 -89.6666 14.8374 0.427721 -0.337247 3.16644 0.412474 -0.35574 -19.3691 0.509331 -0.193061 0.643514 0.509309 -0.193087 73.3122 -63.2558 -119.764 20.83 18.9499 13.0459 -7.54935 -4.09002 -49.8338 14.1695 2.9153 17.302 -103.076 -61.3478 63.8207 -27.0798 -10.6118 14.5805 5.22994 1.44578 -57.3924 -12.7181 -2.02004 16.6919 23.5982 7.16381 2.58285 35.5713 10.5882 13.7345 
40.6469 92.8852 1.05781 -65.1661 -76.5095 -66.888 -171.686 5.20002 90.2147 -11.166 -7.25797 -0.768181 64.8032 -1.5088 -0.959076 28.7808 4.23721e-006 1.53998e-005 174.64 3.04969 79.3045 -4.32665 16.9655 1.03667 60.903 0.62756 0.501614 28.7808 1.4092e-005 2.81049e-005 0.191009 6.03426 -89.7156 14.8092 0.390209 -0.384266 3.13825 0.372776 -0.401044 -19.3971 0.487395 -0.249427 0.615502 0.487368 -0.249445 73.6119 -63.2065 -119.403 20.4162 19.2084 13.8463 -6.89273 -3.47811 -49.8498 14.6017 3.11995 18.1493 -102.977 -61.2979 63.9325 -27.0427 -10.6951 15.8179 7.90108 3.17364 -58.332 -16.2624 -2.67659 16.6741 23.5092 7.14943 2.72231 35.5048 10.5262 13.744 
40.2716 92.9509 0.998601 -66.7367 -76.0343 -68.335 -171.77 5.31394 90.4715 -11.7692 -7.80666 -0.510617 64.2714 -2.01702 -1.27592 28.7808 4.23721e-006 1.53998e-005 174.823 2.96076 79.6321 -4.30982 16.5539 1.00871 60.8798 0.51379 0.434299 28.7808 1.4092e-005 2.81049e-005 0.192989 6.04645 -89.7142 14.7847 0.387298 -0.415232 3.11369 0.368515 -0.431807 -19.4216 0.493999 -0.280002 0.591006 0.493984 -0.280025 73.8359 -63.2081 -119.117 20.1748 19.3438 14.5253 -6.96568 -3.55358 -49.7819 14.6406 3.24385 18.9714 -102.927 -61.1843 63.9585 -26.7734 -10.9772 16.8437 10.7579 5.02175 -58.8427 -19.383 -3.12395 15.6105 23.1847 7.16816 2.74872 35.7219 10.5651 13.7368 
